<?xml version="1.0" encoding="utf-8"?>
<!-- Generator: Adobe Illustrator 19.0.0, SVG Export Plug-In . SVG Version: 6.00 Build 0)  -->
<svg version="1.1" id="Layer_1" xmlns="http://www.w3.org/2000/svg" xmlns:xlink="http://www.w3.org/1999/xlink" x="0px" y="0px"
	 viewBox="0 0 600 120" style="enable-background:new 0 0 600 120;" xml:space="preserve">
<style type="text/css">
	.st0{fill:#4E595D;}
	.st1{clip-path:url(#SVGID_4_);}
	.st2{clip-path:url(#SVGID_5_);}
	.st3{clip-path:url(#SVGID_6_);fill:#F94877;}
</style>
<g>
	<g>
		<path class="st0" d="M43.8,59.3V72h-4.1V43.3h10.9c2.8,0,4.6,0.7,6,1.9c1.7,1.5,2.8,3.6,2.8,6.1s-1.1,4.6-2.8,6.1
			c-1.4,1.2-3.2,1.9-6,1.9H43.8z M50.3,55.4c2,0,3-0.5,3.8-1.3c0.7-0.7,1.1-1.7,1.1-2.8s-0.5-2.1-1.1-2.8c-0.7-0.8-1.8-1.3-3.8-1.3
			h-6.6v8.2H50.3z"/>
	</g>
	<g>
		<path class="st0" d="M70.4,52.3c5.7,0,10,4.3,10,10c0,5.7-4.3,10-10,10s-10-4.3-10-10C60.4,56.6,64.7,52.3,70.4,52.3z M70.4,68.7
			c3.6,0,6.1-2.8,6.1-6.4c0-3.5-2.5-6.4-6.1-6.4s-6.1,2.8-6.1,6.4C64.3,65.9,66.8,68.7,70.4,68.7z"/>
		<path class="st0" d="M99.7,52.7l5.3,13.2l5.3-13.2h4L106.4,72h-2.7l-5.4-13.5L92.9,72h-2.7l-7.8-19.3h4l5.3,13.2L97,52.7H99.7z"/>
		<path class="st0" d="M120.1,63.2c0.2,3.2,2.9,5.8,6.2,5.8c2.9,0,4.4-1.4,5.5-2.6l2.5,2.4c-1.4,1.8-4.2,3.6-8.1,3.6
			c-5.6,0-10-4.3-10-10c0-5.8,3.9-10,9.4-10c5.4,0,9.3,4.3,9.3,10c0,0.2,0,0.5,0,0.8H120.1z M120.4,59.9h10.5
			c-0.6-2.5-2.8-4.2-5.1-4.2C123.3,55.7,121.1,57.4,120.4,59.9z"/>
		<path class="st0" d="M150.7,56.2c-0.5-0.1-0.9-0.2-1.5-0.2c-2,0-4.1,1.4-5.2,3.2V72h-3.9V52.7h3.8v2.2c0.9-1.3,3-2.6,5.8-2.6
			c0.4,0,1.1,0,1.5,0.1L150.7,56.2z"/>
	</g>
	<g>
		<path class="st0" d="M157.4,63.2c0.2,3.2,2.9,5.8,6.2,5.8c2.9,0,4.4-1.4,5.5-2.6l2.5,2.4c-1.4,1.8-4.2,3.6-8.1,3.6
			c-5.6,0-10-4.3-10-10c0-5.8,3.9-10,9.4-10c5.4,0,9.3,4.3,9.3,10c0,0.2,0,0.5,0,0.8H157.4z M157.7,59.9h10.5
			c-0.6-2.5-2.8-4.2-5.1-4.2C160.6,55.7,158.4,57.4,157.7,59.9z"/>
		<path class="st0" d="M191.5,70.2c-1.6,1.4-3.6,2.2-5.9,2.2c-1.7,0-3.5-0.5-4.8-1.3c-2.9-1.7-4.9-4.9-4.9-8.8c0-3.9,2-7.1,5-8.8
			c1.3-0.8,2.9-1.2,4.7-1.2c2.1,0,4.2,0.7,5.9,2.1V42.9h3.9V72h-3.8V70.2z M191.4,58.8c-1.2-1.6-3.2-2.7-5.5-2.7
			c-3.7,0-6.2,3-6.2,6.4c0,3.4,2.7,6.4,6.4,6.4c2,0,4-1,5.3-2.7V58.8z"/>
		<path class="st0" d="M216.9,72h-3.8V42.9h3.9v11.5c1.7-1.4,3.8-2.1,5.9-2.1c1.8,0,3.4,0.5,4.7,1.2c2.9,1.7,5,5,5,8.8
			c0,3.9-2,7.1-4.9,8.8c-1.3,0.8-3.1,1.3-4.8,1.3c-2.3,0-4.4-0.8-5.9-2.2V72z M217,66c1.3,1.8,3.3,2.7,5.3,2.7
			c3.7,0,6.4-2.9,6.4-6.4c0-3.4-2.5-6.4-6.2-6.4c-2.3,0-4.3,1.2-5.5,2.7V66z"/>
		<path class="st0" d="M237.8,81.8L243,70l-8.2-17.3h4.2l6,12.7l5.5-12.7h4.1l-12.7,29.1H237.8z"/>
	</g>
	<g>
		<path class="st0" d="M366.2,55.6v3.9h-9.4V73h-4.1V44.3h16.4v3.9h-12.3v7.4H366.2z"/>
	</g>
	<g>
		<path class="st0" d="M380.9,53.3c5.7,0,10,4.3,10,10c0,5.7-4.3,10-10,10c-5.7,0-10-4.3-10-10C370.9,57.6,375.2,53.3,380.9,53.3z
			 M380.9,69.7c3.6,0,6.1-2.8,6.1-6.4c0-3.5-2.5-6.4-6.1-6.4c-3.6,0-6.1,2.8-6.1,6.4C374.8,66.9,377.3,69.7,380.9,69.7z"/>
		<path class="st0" d="M397.5,70.2c-1.2-1.5-1.8-3.4-1.8-6.6v-9.8h3.9v10.5c0,2,0.4,3,1.1,3.9c0.9,1,2.3,1.7,3.7,1.7
			c2.4,0,4.3-1.4,5.4-2.7V53.7h3.9V73H410v-1.8c-0.9,0.8-3,2.2-5.7,2.2C401.6,73.4,399.1,72.2,397.5,70.2z"/>
		<path class="st0" d="M431.4,57.2c-0.5-0.1-0.9-0.2-1.5-0.2c-2,0-4.1,1.4-5.2,3.2V73h-3.9V53.7h3.8v2.2c0.9-1.3,3-2.6,5.8-2.6
			c0.4,0,1.1,0,1.5,0.1L431.4,57.2z"/>
		<path class="st0" d="M436.7,67.9c1.8,1.4,3.8,2.1,5.7,2.1c1.7,0,3.4-0.9,3.4-2.4c0-2.2-3.2-2.3-6-3.3c-2.3-0.8-4.4-2.3-4.4-5
			c0-4.1,3.7-6,7.1-6c2.8,0,4.9,0.9,6.4,2.1l-2,2.8c-1.2-0.9-2.6-1.5-4.1-1.5c-1.9,0-3.5,0.9-3.5,2.4c0,1.3,1.5,1.8,3.4,2.3
			c3,0.8,7,2.1,7,6.1c0,3.6-3.4,5.9-7.2,5.9c-3.1,0-5.7-0.9-7.8-2.7L436.7,67.9z"/>
		<path class="st0" d="M463.3,73.4c-1.7,0-3.5-0.5-4.8-1.3c-2.9-1.7-4.9-4.9-4.9-8.8c0-3.9,2.1-7.1,5-8.8c1.3-0.8,2.9-1.2,4.7-1.2
			c2.2,0,4.3,0.7,6,2.2v-1.8h3.8v29.1h-3.9V71.3C467.6,72.7,465.6,73.4,463.3,73.4z M469.2,59.8c-1.2-1.6-3.2-2.7-5.5-2.7
			c-3.7,0-6.2,3-6.2,6.4c0,3.4,2.7,6.4,6.4,6.4c2,0,4-1,5.3-2.7V59.8z"/>
		<path class="st0" d="M481.4,70.2c-1.2-1.5-1.8-3.4-1.8-6.6v-9.8h3.9v10.5c0,2,0.4,3,1.1,3.9c0.9,1,2.3,1.7,3.7,1.7
			c2.4,0,4.3-1.4,5.4-2.7V53.7h3.9V73h-3.8v-1.8c-0.9,0.8-3,2.2-5.7,2.2C485.5,73.4,483,72.2,481.4,70.2z"/>
		<path class="st0" d="M518.7,71.2c-1.6,1.4-3.6,2.2-5.9,2.2c-1.7,0-3.5-0.5-4.8-1.3c-2.9-1.7-4.9-4.9-4.9-8.8c0-3.9,2.1-7.1,5-8.8
			c1.3-0.8,2.9-1.2,4.7-1.2c2.2,0,4.3,0.7,6,2.2v-1.8h3.8V73h-3.8V71.2z M518.6,59.8c-1.2-1.6-3.2-2.7-5.5-2.7c-3.7,0-6.2,3-6.2,6.4
			c0,3.4,2.7,6.4,6.4,6.4c2,0,4-1,5.3-2.7V59.8z"/>
		<path class="st0" d="M540.1,57.2c-0.5-0.1-0.9-0.2-1.5-0.2c-2,0-4.1,1.4-5.2,3.2V73h-3.9V53.7h3.8v2.2c0.9-1.3,3-2.6,5.8-2.6
			c0.4,0,1.1,0,1.5,0.1L540.1,57.2z"/>
	</g>
	<g>
		<path class="st0" d="M546.3,64.2c0.2,3.2,2.9,5.8,6.2,5.8c2.9,0,4.4-1.4,5.5-2.6l2.5,2.4c-1.4,1.8-4.2,3.6-8.1,3.6
			c-5.6,0-10-4.3-10-10c0-5.8,3.9-10,9.4-10c5.4,0,9.3,4.3,9.3,10c0,0.2,0,0.5,0,0.8H546.3z M546.7,60.9h10.5
			c-0.6-2.5-2.8-4.2-5.1-4.2C549.6,56.7,547.3,58.4,546.7,60.9z"/>
	</g>
	<g>
		<defs>
			<rect id="SVGID_1_" x="-2" y="12" width="600" height="100"/>
		</defs>
		<defs>
			<path id="SVGID_2_" d="M321,29c0,0-29.2,0-33.9,0c-4.7,0-6.1,3.5-6.1,5.6v53.1c0,2.5,1.3,3.4,2.1,3.7c0.8,0.3,2.8,0.6,4.1-0.9
				c0,0,16.2-18.4,16.5-18.6c0.3-0.3,0.5-0.3,0.7-0.3c0.2,0,6.9,0,10.3,0c4.4,0,5.1-3.1,5.5-4.9c0.4-1.5,4.6-22.9,6-29.7
				C327.3,31.8,326,29,321,29L321,29L321,29z M320.2,66.7c0.4-1.5,4.6-22.9,6-29.7L320.2,66.7L320.2,66.7z M319,38l-1.4,7.3
				c-0.2,0.8-1,1.5-1.9,1.5c-0.9,0-13.2,0-13.2,0c-1.5,0-2.8,1.1-2.8,2.6V51c0,1.5,1.2,2.7,2.7,2.7h11.2c1,0,1.9,1,1.7,2.1
				c-0.2,1.1-1.4,6.9-1.5,7.5c-0.1,0.6-0.8,1.4-1.8,1.4h-9.1c-1.9,0.1-2.3,0.1-3.4,1.4c-1.1,1.4-11.1,13.2-11.1,13.2
				c-0.1,0.1-0.2,0.1-0.2,0V37.9c0-0.9,0.8-2,2.1-2h27.2C318.3,35.9,319.2,36.8,319,38L319,38L319,38z M319,38"/>
		</defs>
		<defs>
			<path id="SVGID_3_" d="M-2,12h600v100H-2V12z M-2,12"/>
		</defs>
		<clipPath id="SVGID_4_">
			<use xlink:href="#SVGID_1_"  style="overflow:visible;"/>
		</clipPath>
		<clipPath id="SVGID_5_" class="st1">
			<use xlink:href="#SVGID_2_"  style="overflow:visible;"/>
		</clipPath>
		<clipPath id="SVGID_6_" class="st2">
			<use xlink:href="#SVGID_3_"  style="overflow:visible;"/>
		</clipPath>
		<rect x="276" y="24" class="st3" width="55.6" height="72.6"/>
	</g>
</g>
</svg>
